<?xml version="1.0" standalone="no"?><!DOCTYPE svg PUBLIC "-//W3C//DTD SVG 1.1//EN" "http://www.w3.org/Graphics/SVG/1.1/DTD/svg11.dtd"><svg t="1623315044302" class="icon" viewBox="0 0 1024 1024" version="1.1" xmlns="http://www.w3.org/2000/svg" p-id="3329" xmlns:xlink="http://www.w3.org/1999/xlink" width="200" height="200"><defs><style type="text/css"></style></defs><path d="M697.984 85.333333C842.666667 85.333333 938.666667 188.458667 938.666667 336.768v350.464C938.666667 835.541333 842.666667 938.666667 697.984 938.666667H325.973333C181.333333 938.666667 85.333333 835.541333 85.333333 687.232V336.768C85.333333 188.586667 181.589333 85.333333 326.016 85.333333z m0 59.52H325.973333c-110.592 0-181.162667 75.690667-181.162666 191.914667v350.464c0 116.352 70.357333 191.914667 181.162666 191.914667h371.968c110.805333 0 181.162667-75.52 181.162667-191.914667V336.768c0-116.352-70.357333-191.914667-181.162667-191.914667zM512 336.426667c15.061333 0 27.52 11.221333 29.482667 25.770666l0.298666 4.053334-0.042666 115.584h115.797333a29.781333 29.781333 0 0 1 4.053333 59.306666l-4.053333 0.256-115.797333-0.042666v115.626666a29.781333 29.781333 0 0 1-59.221334 4.053334l-0.298666-4.010667v-115.669333H366.464a29.781333 29.781333 0 0 1-4.053333-59.221334l4.053333-0.298666h115.754667v-115.626667c0-16.426667 13.354667-29.738667 29.781333-29.738667z" fill="#200E32" p-id="3330"></path></svg>